<svg width="128" height="128" viewBox="0 0 128 128" fill="none" xmlns="http://www.w3.org/2000/svg">
<g clip-path="url(#clip0_231_115)">
<mask id="mask0_231_115" style="mask-type:luminance" maskUnits="userSpaceOnUse" x="0" y="0" width="128" height="128">
<path d="M128 0H0V128H128V0Z" fill="white"/>
</mask>
<g mask="url(#mask0_231_115)">
<path d="M128 64C128 28.6538 99.3462 0 64 0C28.6538 0 0 28.6538 0 64C0 99.3462 28.6538 128 64 128C99.3462 128 128 99.3462 128 64Z" fill="#121212"/>
<path d="M64 12C35.2814 12 12 35.2818 12 64C12 92.7202 35.2818 116 64 116C92.7207 116 116 92.7202 116 64C116 35.2838 92.7207 12.0028 63.9992 12.0028L64 12ZM87.8465 86.9994C86.9149 88.5269 84.9154 89.0112 83.3879 88.0736C71.1788 80.616 55.8096 78.9268 37.7091 83.0625C36.8709 83.2532 35.9913 83.1033 35.2637 82.6457C34.536 82.1881 34.0198 81.4602 33.8286 80.6221C33.7334 80.2072 33.7209 79.7776 33.7919 79.3579C33.8629 78.9381 34.0159 78.5365 34.2424 78.1761C34.4688 77.8156 34.7641 77.5033 35.1113 77.2571C35.4586 77.0109 35.851 76.8356 36.2661 76.7412C56.0749 72.2156 73.0655 74.164 86.7723 82.5408C88.2998 83.4785 88.7841 85.4719 87.8465 86.9994ZM94.2112 72.8404C93.0371 74.7478 90.5411 75.3502 88.635 74.1766C74.6576 65.5852 53.351 63.0969 36.8186 68.1153C34.6744 68.7629 32.41 67.5547 31.7592 65.4142C31.1133 63.27 32.3222 61.0096 34.4628 60.358C53.3473 54.6274 76.8245 57.4033 92.8763 67.2671C94.7824 68.4411 95.3848 70.9367 94.2112 72.8404ZM94.7576 58.0964C77.9982 48.1416 50.3476 47.2259 34.3466 52.0831C31.7771 52.8623 29.0597 51.4115 28.2813 48.842C27.5025 46.2713 28.9516 43.5559 31.5232 42.7747C49.8909 37.1985 80.4263 38.2763 99.7212 49.7309C102.038 51.1024 102.795 54.0875 101.423 56.3954C100.057 58.707 97.0635 59.4687 94.76 58.0964H94.7576Z" fill="#1ED760"/>
</g>
</g>
<defs>
<clipPath id="clip0_231_115">
<rect width="128" height="128" fill="white"/>
</clipPath>
</defs>
</svg>
